<svg width="151" height="52" viewBox="0 0 151 52" fill="none" xmlns="http://www.w3.org/2000/svg">
<rect width="151" height="52" rx="4" fill="#4CAF4F"/>
<path d="M33.4347 32V20.3636H35.1903V30.4886H40.4631V32H33.4347ZM46.0909 32.1761C45.2311 32.1761 44.4905 31.9924 43.8693 31.625C43.2519 31.2538 42.7746 30.733 42.4375 30.0625C42.1042 29.3883 41.9375 28.5985 41.9375 27.6932C41.9375 26.7992 42.1042 26.0114 42.4375 25.3295C42.7746 24.6477 43.2443 24.1155 43.8466 23.733C44.4527 23.3504 45.161 23.1591 45.9716 23.1591C46.464 23.1591 46.9413 23.2405 47.4034 23.4034C47.8655 23.5663 48.2803 23.822 48.6477 24.1705C49.0152 24.5189 49.3049 24.9716 49.517 25.5284C49.7292 26.0814 49.8352 26.7538 49.8352 27.5455V28.1477H42.8977V26.875H48.1705C48.1705 26.428 48.0795 26.0322 47.8977 25.6875C47.7159 25.339 47.4602 25.0644 47.1307 24.8636C46.8049 24.6629 46.4223 24.5625 45.983 24.5625C45.5057 24.5625 45.089 24.6799 44.733 24.9148C44.3807 25.1458 44.108 25.4489 43.9148 25.8239C43.7254 26.1951 43.6307 26.5985 43.6307 27.0341V28.0284C43.6307 28.6117 43.733 29.108 43.9375 29.517C44.1458 29.9261 44.4356 30.2386 44.8068 30.4545C45.178 30.6667 45.6117 30.7727 46.108 30.7727C46.4299 30.7727 46.7235 30.7273 46.9886 30.6364C47.2538 30.5417 47.483 30.4015 47.6761 30.2159C47.8693 30.0303 48.017 29.8011 48.1193 29.5284L49.7273 29.8182C49.5985 30.2917 49.3674 30.7064 49.0341 31.0625C48.7045 31.4148 48.2898 31.6894 47.7898 31.8864C47.2936 32.0795 46.7273 32.1761 46.0909 32.1761ZM54.2599 32.1932C53.7069 32.1932 53.2069 32.0909 52.7599 31.8864C52.313 31.678 51.9588 31.3769 51.6974 30.983C51.4399 30.589 51.3111 30.1061 51.3111 29.5341C51.3111 29.0417 51.4058 28.6364 51.5952 28.3182C51.7846 28 52.0402 27.7481 52.3622 27.5625C52.6842 27.3769 53.044 27.2367 53.4418 27.142C53.8395 27.0473 54.2448 26.9754 54.6577 26.9261C55.1804 26.8655 55.6046 26.8163 55.9304 26.7784C56.2562 26.7367 56.4929 26.6705 56.6406 26.5795C56.7884 26.4886 56.8622 26.3409 56.8622 26.1364V26.0966C56.8622 25.6004 56.7221 25.2159 56.4418 24.9432C56.1652 24.6705 55.7524 24.5341 55.2031 24.5341C54.6312 24.5341 54.1804 24.661 53.8509 24.9148C53.5251 25.1648 53.2997 25.4432 53.1747 25.75L51.5781 25.3864C51.7675 24.8561 52.044 24.428 52.4077 24.1023C52.7751 23.7727 53.1974 23.5341 53.6747 23.3864C54.152 23.2348 54.6539 23.1591 55.1804 23.1591C55.5289 23.1591 55.8982 23.2008 56.2884 23.2841C56.6823 23.3636 57.0497 23.5114 57.3906 23.7273C57.7353 23.9432 58.0175 24.2519 58.2372 24.6534C58.4569 25.0511 58.5668 25.5682 58.5668 26.2045V32H56.9077V30.8068H56.8395C56.7296 31.0265 56.5649 31.2424 56.3452 31.4545C56.1255 31.6667 55.8433 31.8428 55.4986 31.983C55.1539 32.1231 54.741 32.1932 54.2599 32.1932ZM54.6293 30.8295C55.099 30.8295 55.5005 30.7367 55.8338 30.5511C56.1709 30.3655 56.4266 30.1231 56.6009 29.8239C56.7789 29.5208 56.8679 29.197 56.8679 28.8523V27.7273C56.8073 27.7879 56.6899 27.8447 56.5156 27.8977C56.3452 27.947 56.1501 27.9905 55.9304 28.0284C55.7107 28.0625 55.4967 28.0947 55.2884 28.125C55.08 28.1515 54.9058 28.1742 54.7656 28.1932C54.4361 28.2348 54.1349 28.3049 53.8622 28.4034C53.5933 28.5019 53.3774 28.6439 53.2145 28.8295C53.0554 29.0114 52.9759 29.2538 52.9759 29.5568C52.9759 29.9773 53.1312 30.2955 53.4418 30.5114C53.7524 30.7235 54.1482 30.8295 54.6293 30.8295ZM60.8295 32V23.2727H62.4716V24.6591H62.5625C62.7216 24.1894 63.0019 23.8201 63.4034 23.5511C63.8087 23.2784 64.267 23.142 64.7784 23.142C64.8845 23.142 65.0095 23.1458 65.1534 23.1534C65.3011 23.161 65.4167 23.1705 65.5 23.1818V24.8068C65.4318 24.7879 65.3106 24.767 65.1364 24.7443C64.9621 24.7178 64.7879 24.7045 64.6136 24.7045C64.2121 24.7045 63.8542 24.7898 63.5398 24.9602C63.2292 25.1269 62.983 25.3598 62.8011 25.6591C62.6193 25.9545 62.5284 26.2917 62.5284 26.6705V32H60.8295ZM68.669 26.8182V32H66.9702V23.2727H68.6009V24.6932H68.7088C68.9096 24.2311 69.224 23.8598 69.652 23.5795C70.0838 23.2992 70.6274 23.1591 71.2827 23.1591C71.8774 23.1591 72.3982 23.2841 72.8452 23.5341C73.2921 23.7803 73.6387 24.1477 73.8849 24.6364C74.1312 25.125 74.2543 25.7292 74.2543 26.4489V32H72.5554V26.6534C72.5554 26.0208 72.3906 25.5265 72.0611 25.1705C71.7315 24.8106 71.2789 24.6307 70.7031 24.6307C70.3092 24.6307 69.9588 24.7159 69.652 24.8864C69.349 25.0568 69.1084 25.3068 68.9304 25.6364C68.7562 25.9621 68.669 26.3561 68.669 26.8182ZM80.9034 20.3636H83.0341L86.7386 29.4091H86.875L90.5795 20.3636H92.7102V32H91.0398V23.5795H90.9318L87.5 31.983H86.1136L82.6818 23.5739H82.5739V32H80.9034V20.3636ZM98.8026 32.1761C97.9844 32.1761 97.2704 31.9886 96.6605 31.6136C96.0507 31.2386 95.5772 30.714 95.2401 30.0398C94.9029 29.3655 94.7344 28.5777 94.7344 27.6761C94.7344 26.7708 94.9029 25.9792 95.2401 25.3011C95.5772 24.6231 96.0507 24.0966 96.6605 23.7216C97.2704 23.3466 97.9844 23.1591 98.8026 23.1591C99.6207 23.1591 100.335 23.3466 100.945 23.7216C101.554 24.0966 102.028 24.6231 102.365 25.3011C102.702 25.9792 102.871 26.7708 102.871 27.6761C102.871 28.5777 102.702 29.3655 102.365 30.0398C102.028 30.714 101.554 31.2386 100.945 31.6136C100.335 31.9886 99.6207 32.1761 98.8026 32.1761ZM98.8082 30.75C99.3385 30.75 99.7779 30.6098 100.126 30.3295C100.475 30.0492 100.732 29.6761 100.899 29.2102C101.07 28.7443 101.155 28.2311 101.155 27.6705C101.155 27.1136 101.07 26.6023 100.899 26.1364C100.732 25.6667 100.475 25.2898 100.126 25.0057C99.7779 24.7216 99.3385 24.5795 98.8082 24.5795C98.2741 24.5795 97.831 24.7216 97.4787 25.0057C97.1302 25.2898 96.8707 25.6667 96.7003 26.1364C96.5336 26.6023 96.4503 27.1136 96.4503 27.6705C96.4503 28.2311 96.5336 28.7443 96.7003 29.2102C96.8707 29.6761 97.1302 30.0492 97.4787 30.3295C97.831 30.6098 98.2741 30.75 98.8082 30.75ZM104.767 32V23.2727H106.409V24.6591H106.5C106.659 24.1894 106.939 23.8201 107.341 23.5511C107.746 23.2784 108.205 23.142 108.716 23.142C108.822 23.142 108.947 23.1458 109.091 23.1534C109.239 23.161 109.354 23.1705 109.438 23.1818V24.8068C109.369 24.7879 109.248 24.767 109.074 24.7443C108.9 24.7178 108.725 24.7045 108.551 24.7045C108.15 24.7045 107.792 24.7898 107.477 24.9602C107.167 25.1269 106.92 25.3598 106.739 25.6591C106.557 25.9545 106.466 26.2917 106.466 26.6705V32H104.767ZM114.357 32.1761C113.497 32.1761 112.756 31.9924 112.135 31.625C111.518 31.2538 111.04 30.733 110.703 30.0625C110.37 29.3883 110.203 28.5985 110.203 27.6932C110.203 26.7992 110.37 26.0114 110.703 25.3295C111.04 24.6477 111.51 24.1155 112.112 23.733C112.718 23.3504 113.427 23.1591 114.237 23.1591C114.73 23.1591 115.207 23.2405 115.669 23.4034C116.131 23.5663 116.546 23.822 116.913 24.1705C117.281 24.5189 117.571 24.9716 117.783 25.5284C117.995 26.0814 118.101 26.7538 118.101 27.5455V28.1477H111.163V26.875H116.436C116.436 26.428 116.345 26.0322 116.163 25.6875C115.982 25.339 115.726 25.0644 115.396 24.8636C115.071 24.6629 114.688 24.5625 114.249 24.5625C113.771 24.5625 113.355 24.6799 112.999 24.9148C112.646 25.1458 112.374 25.4489 112.18 25.8239C111.991 26.1951 111.896 26.5985 111.896 27.0341V28.0284C111.896 28.6117 111.999 29.108 112.203 29.517C112.411 29.9261 112.701 30.2386 113.072 30.4545C113.444 30.6667 113.877 30.7727 114.374 30.7727C114.696 30.7727 114.989 30.7273 115.254 30.6364C115.519 30.5417 115.749 30.4015 115.942 30.2159C116.135 30.0303 116.283 29.8011 116.385 29.5284L117.993 29.8182C117.864 30.2917 117.633 30.7064 117.3 31.0625C116.97 31.4148 116.555 31.6894 116.055 31.8864C115.559 32.0795 114.993 32.1761 114.357 32.1761Z" fill="white"/>
</svg>
